<svg width="224" height="23" viewBox="0 0 224 23" fill="none" xmlns="http://www.w3.org/2000/svg">
<path fill-rule="evenodd" clip-rule="evenodd" d="M118.63 0.351865C112.805 1.61686 109.365 6.79352 110.161 13.0934C110.837 18.4379 114.095 21.7879 119.502 22.6981C123.518 23.3739 127.378 22.5775 130.111 20.5096C132.634 18.6003 133.905 15.9774 134.132 12.2113C134.503 6.05729 131.219 1.56138 125.462 0.343566C123.51 -0.0694852 120.554 -0.0659285 118.63 0.351865ZM187.838 0.244927C184.743 0.764916 182.591 2.1838 181.567 4.37758C180.593 6.46536 180.874 9.80818 182.143 11.2256C182.751 11.9052 184.133 12.7254 185.182 13.0298C185.694 13.1783 187.907 13.5012 190.102 13.7476C194.884 14.2844 195.614 14.582 195.614 15.9928C195.614 16.7143 195.476 17.0058 194.944 17.4022C194.369 17.8316 193.884 17.912 191.5 17.9737C188.991 18.0382 188.623 17.9929 187.656 17.4994C186.953 17.1402 186.471 16.6899 186.248 16.183L185.908 15.4124H183.225H180.542L180.677 16.183C181.27 19.5728 183.133 21.5621 186.548 22.4539C188.436 22.9471 193.23 23.0031 195.02 22.5528C197.648 21.892 199.387 20.7197 200.344 18.9648C202.209 15.5454 200.691 11.2486 197.211 10.0951C196.546 9.87434 194.279 9.49306 192.175 9.24788C187.236 8.67265 185.938 8.07678 186.319 6.5602C186.578 5.52852 188.113 4.8933 190.388 4.87551C191.433 4.86745 192.574 4.94072 192.923 5.03865C193.755 5.27149 195.006 6.33329 195.272 7.03301C195.476 7.56817 195.576 7.58762 198.102 7.58762H200.721L200.719 6.817C200.716 5.83819 199.813 3.89102 198.859 2.8067C197.942 1.76411 195.589 0.593958 193.729 0.256071C192.14 -0.0327326 189.519 -0.037712 187.838 0.244927ZM13.5398 4.27989C10.2083 6.35771 5.80024 9.09898 3.7441 10.3716L0.00546428 12.6856L0.00285134 17.5125C0.000475945 21.5607 0.0539223 22.3188 0.333744 22.2116C0.597413 22.1106 12.3015 14.9075 18.6568 10.9349L19.8545 10.1864L25.0704 10.2504C32.1047 10.3367 32.1004 10.2611 25.2899 14.2998C21.4415 16.582 20.1101 17.4907 19.9331 17.9549C19.8037 18.2947 19.7286 19.4355 19.7662 20.4899L19.8346 22.4072H25.8918H31.9491V11.6691C31.9491 2.38203 31.9009 0.900545 31.5928 0.706112C31.3921 0.579731 28.6941 0.486071 25.4167 0.491762L19.597 0.502195L13.5398 4.27989ZM50.043 0.645885C49.7622 1.10067 41.807 21.9441 41.807 22.2251C41.807 22.4738 42.3989 22.5267 44.5964 22.4741L47.3858 22.4072L48.1023 20.3917L48.8187 18.3763H53.5472H58.2759L58.8897 20.1598C59.2274 21.141 59.5902 22.0745 59.6959 22.2346C59.9094 22.5582 65.2108 22.6635 65.4047 22.3479C65.4648 22.25 63.6243 17.3152 61.3149 11.3814L57.116 0.592772L53.6362 0.527329C51.7224 0.491287 50.1054 0.544638 50.043 0.645885ZM66.3731 0.794556C66.3019 0.979504 66.2772 4.63745 66.318 8.92351C66.39 16.4749 66.4095 16.7539 66.9406 17.9255C68.0547 20.3823 70.5389 22.0677 73.9549 22.6844C78.5762 23.5188 83.5541 22.1068 85.5145 19.4053C86.8438 17.5736 86.9396 16.8241 86.9396 8.24821V0.458566L84.2672 0.525669L81.5949 0.592772L81.4757 7.94329C81.3985 12.6993 81.2607 15.5029 81.0851 15.8866C80.4464 17.2829 78.9447 18.0216 76.7493 18.0192C74.8569 18.0173 73.8547 17.6742 72.9142 16.7061L72.0933 15.861L71.9745 8.22687L71.8558 0.592772L69.1789 0.525669C67.0427 0.472081 66.4762 0.52638 66.3731 0.794556ZM89.7135 0.629762C89.6249 0.717968 89.5525 1.78332 89.5525 2.9971V5.20392L93.0562 5.26936L96.5599 5.33504L96.6224 13.9382L96.6846 22.5412L99.3541 22.4743L102.023 22.4072L102.086 13.8118L102.148 5.21648H105.717H109.285L109.217 2.90463L109.15 0.592772L99.5121 0.530885C94.2114 0.496741 89.8019 0.541318 89.7135 0.629762ZM137.298 11.5308V22.5872L143.89 22.453C147.515 22.3792 150.977 22.1993 151.584 22.053C154.299 21.398 156.172 19.5535 156.905 16.8116C157.837 13.3288 157.544 7.23811 156.318 4.59785C154.753 1.22918 152.234 0.486308 142.346 0.478246L137.298 0.474215V11.5308ZM160.687 0.767525C160.623 0.932318 160.6 5.86855 160.634 11.7371L160.696 22.4072H169.366H178.036L178.104 20.0994L178.172 17.7916L172.165 17.7282L166.159 17.6649L166.09 15.7088L166.021 13.7526H170.9H175.779V11.3864V9.02002L170.969 8.956L166.159 8.89174V7.11339V5.33504L172.165 5.27173L178.172 5.20842L178.104 2.9006L178.036 0.592772L169.419 0.530411C162.653 0.481566 160.777 0.532545 160.687 0.767525ZM204.155 0.770607C204.093 0.933741 204.069 5.86855 204.103 11.7371L204.165 22.4072H206.778H209.391L209.51 18.2919L209.629 14.1763L213.424 18.3511L217.219 22.5258H220.234C221.892 22.5258 223.423 22.4591 223.636 22.3776C223.941 22.2607 223.657 21.846 222.3 20.4214C221.353 19.4269 219.822 17.8131 218.899 16.835C217.976 15.8569 216.487 14.2865 215.59 13.3454L213.96 11.634L216.545 8.84029C217.967 7.30356 219.727 5.40617 220.456 4.6237C223.489 1.36766 223.988 0.778195 223.839 0.629999C223.753 0.544401 222.324 0.474215 220.663 0.474215H217.642L216.74 1.48195C216.244 2.03632 215.018 3.39664 214.016 4.50514C213.014 5.61365 211.67 7.12548 211.03 7.86457C210.39 8.60388 209.786 9.2173 209.688 9.22797C209.59 9.23864 209.51 7.27344 209.51 4.86081V0.474215H206.89C205.012 0.474215 204.237 0.558391 204.155 0.770607ZM124.771 5.35259C126.979 6.10352 128.509 8.62001 128.509 11.5C128.509 14.1547 127.346 16.3039 125.325 17.3818C124.52 17.811 123.961 17.9009 122.095 17.9013C120.056 17.9021 119.731 17.8387 118.719 17.2448C117.231 16.3717 116.49 15.3476 116.02 13.5155C115.09 9.89497 116.596 6.35866 119.515 5.30398C120.666 4.88832 123.482 4.91416 124.771 5.35259ZM55.1071 9.45868C55.8922 11.7072 56.5345 13.5935 56.5345 13.6499C56.5345 13.7063 55.1983 13.7526 53.5652 13.7526C51.9321 13.7526 50.596 13.6762 50.596 13.583C50.596 13.3063 53.5379 5.22858 53.6118 5.30232C53.6491 5.33954 54.3218 7.2099 55.1071 9.45868ZM150.073 5.84317C151.352 6.77598 151.669 7.852 151.669 11.2629C151.669 14.0776 151.618 14.448 151.075 15.5269C150.147 17.3728 149.443 17.6609 145.849 17.663L142.88 17.6649L142.816 11.7414C142.782 8.48343 142.81 5.66866 142.88 5.48632C142.984 5.21743 143.614 5.17546 146.218 5.26367C148.936 5.35567 149.527 5.44435 150.073 5.84317Z" fill="black"/>
</svg>
