<svg width="99" height="40" viewBox="0 0 99 40" fill="none" xmlns="http://www.w3.org/2000/svg">
<g clip-path="url(#clip0_1_195)">
<path d="M0 0V2.71605H19.0479V0H0ZM21.7341 0V2.71605H48.9628C48.9628 2.71605 46.1545 0 42.4915 0H21.7341ZM54.3353 0V2.71605H70.819L69.8422 0H54.3353ZM82.5408 0L81.564 2.71605H97.9259V0H82.5408ZM0 5.30864V8.02469H19.0479V5.30864H0ZM21.7341 5.30864V8.02469H52.1374C52.1374 8.02469 51.7711 5.92593 51.1607 5.30864H21.7341ZM54.3353 5.30864V8.02469H72.6506L71.7958 5.30864H54.3353ZM80.5871 5.30864L79.7325 8.02469H97.9259V5.30864H80.5871ZM5.49458 10.6173V13.3333H13.7975V10.6173H5.49458ZM27.2287 10.6173V13.3333H35.5316V10.6173H27.2287ZM43.5904 10.6173V13.3333H51.8933C51.8933 13.3333 52.3816 11.8518 52.3816 10.6173H43.5904ZM59.8299 10.6173V13.3333H74.4821L73.5053 10.6173H59.8299ZM78.8777 10.6173L77.901 13.3333H92.6752V10.6173H78.8777ZM5.49458 15.926V18.642H13.7975V15.926H5.49458ZM27.2287 15.926V18.642H48.3523C48.3523 18.642 50.0617 17.2839 50.6722 15.926H27.2287ZM59.8299 15.926V18.642H68.1328V17.1605L68.6212 18.642H83.7618L84.3723 17.1605V18.642H92.6752V15.926H77.0462L76.1915 18.2716L75.3368 15.926H59.8299ZM5.49458 21.2346V23.9506H13.7975V21.2346H5.49458ZM27.2287 21.2346V23.9506H50.6722C50.0617 22.5926 48.3523 21.2346 48.3523 21.2346H27.2287ZM59.8299 21.2346V23.9506H68.1328V21.2346H59.8299ZM69.598 21.2346L70.5749 23.9506H81.9303L82.9071 21.2346H69.598ZM84.2502 21.2346V23.9506H92.5531V21.2346H84.2502ZM5.49458 26.5433V29.2593H13.7975V26.5433H5.49458ZM27.2287 26.5433V29.2593H35.5316V26.5433H27.2287ZM43.5904 26.5433V29.2593H52.3816C52.3816 28.0247 51.8933 26.5433 51.8933 26.5433H43.5904ZM59.8299 26.5433V29.2593H68.1328V26.5433H59.8299ZM71.4295 26.5433L72.4064 29.2593H79.9767L80.9535 26.5433H71.4295ZM84.3723 26.5433V29.2593H92.6752V26.5433H84.3723ZM0.122102 31.9754V34.6914H19.17V31.9754H0.122102ZM21.8562 31.9754V34.6914H51.2827C51.8933 34.074 52.2596 31.9754 52.2596 31.9754H21.8562ZM54.4574 31.9754V34.6914H68.0107V31.9754H54.4574ZM73.3832 31.9754L74.36 34.6914H78.2673L79.2441 31.9754H73.3832ZM84.3723 31.9754V34.6914H98.1697V31.9754H84.3723ZM0.122102 37.2839V40H19.17V37.2839H0.122102ZM21.8562 37.2839V40H42.6135C46.2765 40 49.0849 37.2839 49.0849 37.2839H21.8562ZM54.4574 37.2839V40H68.0107V37.2839H54.4574ZM75.2147 37.2839L76.1915 40H76.3136L77.2904 37.2839H75.2147ZM84.3723 37.2839V40H98.1697V37.2839H84.3723Z" fill="black"/>
</g>
<defs>
<clipPath id="clip0_1_195">
<rect width="99" height="40" fill="white"/>
</clipPath>
</defs>
</svg>
