<svg width="67" height="67" viewBox="0 0 67 67" fill="none" xmlns="http://www.w3.org/2000/svg">
<path fill-rule="evenodd" clip-rule="evenodd" d="M38.0405 4.70884C38.0405 2.41889 36.1841 0.5625 33.8941 0.5625C31.6042 0.5625 29.7478 2.41889 29.7478 4.70884V30.1327H4.32603C2.03607 30.1327 0.179688 31.9891 0.179688 34.279C0.179688 36.5689 2.03607 38.4253 4.32603 38.4253H29.7478V62.7576C29.7478 65.0475 31.6042 66.9039 33.8941 66.9039C36.1841 66.9039 38.0405 65.0475 38.0405 62.7576V38.4253H62.3749C64.6648 38.4253 66.5212 36.5689 66.5212 34.279C66.5212 31.9891 64.6648 30.1327 62.3749 30.1327H38.0405V4.70884Z" fill="white"/>
</svg>
